<?xml version="1.0" encoding="UTF-8" standalone="no"?>
<!-- Created with Inkscape (http://www.inkscape.org/) -->

<svg
   width="43.961899mm"
   height="43.97044mm"
   viewBox="0 0 43.961899 43.97044"
   version="1.1"
   id="svg4842"
   xml:space="preserve"
   inkscape:version="1.2.2 (b0a8486541, 2022-12-01)"
   sodipodi:docname="loongarch.svg"
   xmlns:inkscape="http://www.inkscape.org/namespaces/inkscape"
   xmlns:sodipodi="http://sodipodi.sourceforge.net/DTD/sodipodi-0.dtd"
   xmlns:xlink="http://www.w3.org/1999/xlink"
   xmlns="http://www.w3.org/2000/svg"
   xmlns:svg="http://www.w3.org/2000/svg"><sodipodi:namedview
     id="namedview4844"
     pagecolor="#ffffff"
     bordercolor="#000000"
     borderopacity="0.25"
     inkscape:showpageshadow="2"
     inkscape:pageopacity="0.0"
     inkscape:pagecheckerboard="0"
     inkscape:deskcolor="#d1d1d1"
     inkscape:document-units="mm"
     showgrid="false"
     inkscape:zoom="3.5360406"
     inkscape:cx="69.993541"
     inkscape:cy="100.53618"
     inkscape:window-width="1920"
     inkscape:window-height="1007"
     inkscape:window-x="0"
     inkscape:window-y="0"
     inkscape:window-maximized="1"
     inkscape:current-layer="layer1" /><defs
     id="defs4839"><linearGradient
       x1="112.49854"
       y1="6.1372099"
       x2="112.49853"
       y2="129.3468"
       id="path1082_2_"
       gradientUnits="userSpaceOnUse"
       gradientTransform="translate(287,-83)"><stop
         id="stop193"
         style="stop-color:#ffffff;stop-opacity:0"
         offset="0" /><stop
         id="stop195"
         style="stop-color:#ffffff;stop-opacity:0.27450982"
         offset="1" /><midPointStop
         offset="0"
         style="stop-color:#FFFFFF"
         id="midPointStop197" /><midPointStop
         offset="0.5"
         style="stop-color:#FFFFFF"
         id="midPointStop199" /><midPointStop
         offset="1"
         style="stop-color:#000000"
         id="midPointStop201" /></linearGradient><linearGradient
       x1="541.33502"
       y1="104.50665"
       x2="606.91248"
       y2="303.14029"
       id="linearGradient2544"
       xlink:href="#path1082_2_"
       gradientUnits="userSpaceOnUse"
       gradientTransform="matrix(-0.3937741,0,0,0.393752,357.51969,122.00151)" /><linearGradient
       id="linearGradient3388"><stop
         id="stop3390"
         style="stop-color:#000000;stop-opacity:0"
         offset="0" /><stop
         id="stop3392"
         style="stop-color:#000000;stop-opacity:0.37113401"
         offset="1" /></linearGradient><linearGradient
       x1="490.72305"
       y1="237.72447"
       x2="490.72305"
       y2="183.9644"
       id="linearGradient4416"
       xlink:href="#linearGradient3388"
       gradientUnits="userSpaceOnUse"
       gradientTransform="matrix(0.749107,0,0,0.749107,-35.459862,91.44108)" /></defs><g
     inkscape:label="Layer 1"
     inkscape:groupmode="layer"
     id="layer1"
     transform="translate(-795.43787,-3.16613)"><path
       d="m 817.41482,3.16613 c -1.95708,4.79826 -3.13751,7.93688 -5.31647,12.59251 1.33598,1.41614 2.97583,3.06529 5.63893,4.92787 -2.8631,-1.17815 -4.81608,-2.36099 -6.27558,-3.58842 -2.78866,5.81896 -7.15768,14.10781 -16.02383,30.03848 6.9685,-4.02303 12.37035,-6.50328 17.40462,-7.44967 -0.21617,-0.92976 -0.33907,-1.93548 -0.33073,-2.98484 l 0.008,-0.22324 c 0.11058,-4.46453 2.43302,-7.89775 5.18418,-7.66465 2.75116,0.23311 4.88961,4.04348 4.77904,8.50801 -0.0208,0.84009 -0.11556,1.64824 -0.28112,2.39779 4.97961,0.9741 10.3237,3.44799 17.19791,7.4166 -1.35546,-2.4955 -2.56532,-4.74501 -3.7207,-6.88743 -1.81991,-1.41055 -3.71816,-3.24639 -7.59023,-5.23379 2.66144,0.69155 4.567,1.48942 6.05234,2.38125 C 822.39414,15.52565 821.44288,12.61945 817.41455,3.16613 Z"
       id="path2518-6"
       style="fill:#1793d1;fill-opacity:1;fill-rule:evenodd;stroke:none;stroke-width:0.264583" /><path
       style="fill:#e60013;fill-opacity:1;stroke:none;stroke-width:0.0192355"
       d="m 815.14908,29.74203 c 0.17224,0.823443 0.55049,0.873262 0.9233,1.288778 -0.64806,0.144165 -1.5329,0.41709 -1.71195,1.057953 0.0958,-0.0068 0.19156,-0.01382 0.28734,-0.02049 -0.48221,0.138919 -0.85043,0.834151 -0.73335,1.326156 0.11412,-0.250428 0.27858,-0.471188 0.44601,-0.632422 -0.33373,0.528372 -0.48186,1.145806 -0.34624,1.731195 l 0.30776,-0.211591 c -0.032,0.202505 0.23375,1.210481 0.28288,1.219954 0.11086,-0.272638 0.28298,-0.346874 0.42885,-0.46977 -0.0288,0.25025 0.0866,1.219203 0.35901,1.3217 0.11432,-0.365923 0.40989,-0.619662 0.73741,-0.686928 -0.0739,0.232757 -0.22539,1.020314 -0.003,1.139125 0.54268,-0.799682 2.0347,-0.421719 2.67665,-0.135455 1.94968,1.073493 1.43883,2.741813 -0.40393,3.016547 0.0584,0.126062 0.37562,0.133671 0.49023,0.153535 -1.48156,0.139749 -1.94083,-0.651073 -2.90145,-1.092485 l 0.1045,0.385558 c -0.81308,-0.95215 -2.66228,-1.413503 -3.38698,-0.562266 1.26293,-0.04533 2.40815,0.822917 3.23155,1.538839 l -0.69247,-0.153884 c 0.99776,1.199781 3.22592,1.477287 4.44341,1.000015 0.77945,-0.368872 1.56967,-1.015055 1.92354,-1.750199 l 0.19236,0.307769 c 0.3176,-0.317993 0.19305,-1.118742 0.11541,-1.461899 l 0.21159,0.153884 c -6e-5,-0.683898 -0.43529,-1.204046 -0.75018,-1.769665 l 0.75018,0.346239 c -0.721,-1.438143 -2.75312,-1.711916 -4.00098,-1.992316 -2.6015,-0.938374 -2.18341,-2.501169 -1.30219,-2.398743 0.0293,-0.08075 -0.045,-0.221419 -0.0636,-0.302401 0.17094,0.400423 0.32547,0.521357 0.63477,0.80789 l -0.48089,-0.134648 c 0.26298,0.90152 1.01634,0.580344 1.42343,0.782578 0.39056,0.223285 0.327,0.744258 0.327,1.121736 l 0.38472,-0.05772 c -0.0333,0.0322 -0.0817,0.11867 -0.11694,0.179446 0.12005,0.03094 0.31402,-0.0023 0.36697,-0.03261 0.17162,-0.09808 0.26879,-0.362204 0.26933,-0.550769 l -0.2116,0.0577 v -0.17312 l -0.17312,0.03847 -0.23002,-0.538593 -0.0557,-0.423181 -0.17591,-0.230826 c 0.14281,0.06283 0.19808,0.18268 0.31129,0.2778 0.0665,0.05583 0.15558,0.07604 0.22729,0.124529 0.13609,0.09204 0.23788,0.235425 0.29907,0.386326 0.25867,0.695559 0.11445,1.314979 0.95126,1.327249 -0.48494,-0.238925 -0.64865,-0.735344 -0.54969,-1.327249 0.0125,-0.08648 0.0133,-0.3319 0.0524,-0.386845 0.28058,-0.02473 0.66556,0.405191 0.67939,0.415255 0.0339,0.0071 0.12148,-0.0175 0.18335,-0.06688 l -0.11542,0.34624 c 0.15038,-0.01187 0.26341,-0.07633 0.40395,-0.105565 0.0556,-0.01155 0.065,0.02933 0.14701,0.06189 0.18825,-0.201783 0.2554,-0.649495 0.12926,-0.796858 -0.25194,-0.145771 -0.56261,-0.221459 -0.77638,-0.380978 -0.37224,-0.283704 -0.52949,-0.7528 -0.981,-0.945617 -0.24054,-0.102702 -0.48243,-0.05567 -0.73097,-0.08342 0.0462,-0.02423 0.15432,-0.03577 0.24223,-0.0969 -0.31401,-0.452878 -1.35053,-0.774953 -1.91571,-0.853866 -1.00477,-0.02494 -1.52678,-0.814067 -2.13515,-1.088186 m 4.40053,2.584778 c -0.0142,-0.06632 0.0487,-0.09749 0.0935,-0.09547 m 0.0342,0.202643 c 0.072,-0.04522 0.12887,-0.116742 0.14644,-0.07878 -0.052,0.106674 -0.13728,0.159117 -0.19022,0.08038 -0.0368,-0.05465 -0.0519,-0.09225 0.0988,-0.159161 0.0683,0.02424 -0.078,0.10267 -0.082,0.130416 m 0.24453,0.0055 c -0.005,0.03023 0.006,0.11351 -0.10234,0.11494 m 1.24269,0.69635 c 0.17495,0.09953 0.29265,0.108873 0.26786,0.257029 z"
       id="path606-7"
       sodipodi:nodetypes="cccccccccccccccccccccccccccccccccccccccccccccccccccccccccccccccccccsccccccc" /></g></svg>
